<?xml version="1.0" encoding="utf-8"?>
<!-- Generator: Adobe Illustrator 26.3.0, SVG Export Plug-In . SVG Version: 6.00 Build 0)  -->
<svg version="1.1" id="Layer_1" xmlns="http://www.w3.org/2000/svg" xmlns:xlink="http://www.w3.org/1999/xlink" x="0px" y="0px"
	 viewBox="0 0 32 32" style="enable-background:new 0 0 32 32;" xml:space="preserve">
<style type="text/css">
	.st0{fill:url(#SVGID_1_);stroke:#000000;stroke-width:0.5;stroke-miterlimit:10;}
	.st1{fill:none;stroke:#000000;stroke-miterlimit:10;}
	.st2{fill:#B50000;stroke:#000000;stroke-width:0.5;stroke-miterlimit:10;}
	.st3{fill:#010172;stroke:#000000;stroke-width:0.5;stroke-miterlimit:10;}
	.st4{fill:#393663;stroke:#000000;stroke-miterlimit:10;}
	.st5{fill:#393663;}
	
		.st6{fill:url(#SVGID_00000029041140024376761700000017987615828507354805_);stroke:#000000;stroke-width:0.5;stroke-miterlimit:10;}
	
		.st7{fill:url(#SVGID_00000150806325234752780970000010598703986884156292_);stroke:#000000;stroke-width:0.5;stroke-miterlimit:10;}
	.st8{fill:url(#SVGID_00000074433543857592562270000012606540160848937147_);stroke:#000000;stroke-miterlimit:10;}
	.st9{fill:url(#SVGID_00000052811603203999175000000003194499394962485432_);stroke:#000000;stroke-miterlimit:10;}
	.st10{fill:url(#SVGID_00000113355004112311917030000003417976075348993461_);stroke:#000000;stroke-miterlimit:10;}
	.st11{fill:url(#SVGID_00000009558174957571782390000004093705388356888718_);}
	.st12{fill:url(#SVGID_00000160869260990232277860000014003421618666537613_);}
	.st13{fill:url(#SVGID_00000138555127204413162810000015944413141935774391_);}
	.st14{fill:url(#SVGID_00000150825365394254254810000013074119417236368262_);}
	.st15{fill:#845006;}
	.st16{fill:#AA8A04;}
	.st17{fill:none;stroke:#000000;stroke-width:0.25;stroke-miterlimit:10;}
	
		.st18{fill:url(#SVGID_00000112630383960991936440000003684119384216821672_);stroke:#000000;stroke-width:0.5;stroke-miterlimit:10;}
	.st19{fill:url(#SVGID_00000147196343600219197650000009580079634503070908_);}
	.st20{fill:url(#SVGID_00000023987719932037411720000018199840801591087806_);}
	.st21{fill:url(#SVGID_00000149351337082067759390000003554211646060477066_);}
	.st22{stroke:#000000;stroke-width:0.5;stroke-miterlimit:10;}
	.st23{stroke:#000000;stroke-miterlimit:10;}
	.st24{fill:url(#SVGID_00000067923094976233787700000000546609257927217030_);}
	.st25{fill:url(#SVGID_00000041995391196230996760000014384018638142442123_);}
	.st26{fill:url(#SVGID_00000179619401273881318610000005763924515727169696_);}
	.st27{fill:url(#SVGID_00000108988120753990921390000003943258183684096151_);}
	.st28{fill:url(#SVGID_00000036234595920295113530000015325541351096765346_);}
	.st29{fill:url(#SVGID_00000120548204701152374180000016291208263624213931_);}
	.st30{fill:url(#SVGID_00000108280868910137099300000005069822363064220811_);}
	.st31{fill:url(#SVGID_00000071558815143776201270000007153615667157423756_);}
	.st32{fill:url(#SVGID_00000073685112360828797760000004575330934911485574_);}
	.st33{fill:url(#SVGID_00000126302160053782001070000002472276903171287985_);}
	.st34{fill:url(#SVGID_00000155853294846323153580000010145331030358689463_);}
	.st35{fill:url(#SVGID_00000060727046237801859660000001623496473403961516_);}
	.st36{fill:#FFFFFF;}
	.st37{fill:url(#SVGID_00000168105078612156959970000004992720691512053148_);}
	.st38{fill:url(#SVGID_00000127004444168474327760000008138888493946156170_);}
	.st39{fill:url(#SVGID_00000060740683625452407800000011271582526895669141_);}
	.st40{fill:url(#SVGID_00000005264257472351124940000006852392882358506937_);}
</style>
<path d="M28.88,32H3.12C1.4,32,0,30.6,0,28.88V3.12C0,1.4,1.4,0,3.12,0h25.75C30.6,0,32,1.4,32,3.12v25.75C32,30.6,30.6,32,28.88,32
	z"/>
<linearGradient id="SVGID_1_" gradientUnits="userSpaceOnUse" x1="-913.1359" y1="-716.8895" x2="-717.28" y2="-1056.1217">
	<stop  offset="8.292820e-08" style="stop-color:#ED1C24"/>
	<stop  offset="0.1069" style="stop-color:#DF1B28"/>
	<stop  offset="0.3078" style="stop-color:#BB1A33"/>
	<stop  offset="0.5812" style="stop-color:#811845"/>
	<stop  offset="0.9134" style="stop-color:#31155D"/>
	<stop  offset="1" style="stop-color:#1B1464"/>
</linearGradient>
<polygon class="st0" points="-870.06,-795.77 -463.31,-799.83 -612.21,-767.3 -993.12,-763.07 -806.03,-873.69 -898.03,-854.25 
	-747.5,-963.84 -1010.84,-965.43 -1153.43,-996.87 -614.65,-996.87 -762.6,-905.29 -667.33,-913.47 -798.24,-847.73 
	-751.61,-847.39 "/>
<path class="st1" d="M-533.65-985.91"/>
<path class="st1" d="M-1477.24-711.67"/>
<path class="st1" d="M-533.65-944.54"/>
<path class="st1" d="M-1065.35-657.37"/>
<polyline class="st2" points="-1527.31,-934.52 -1616.78,-877.33 -1450.47,-1023.12 -1677.49,-1024.04 -1711.4,-1059.67 
	-1374.22,-1055.42 -1479.67,-954.58 -1424.78,-975.88 -1531.01,-902.13 "/>
<polyline class="st3" points="-1546.31,-881.93 -1469.72,-937.58 -1566.23,-831.37 -1556.13,-862.19 -1604.99,-815.98 
	-1356.7,-819.7 -1415.05,-782.24 -1724.17,-779.35 -1536.1,-922.65 "/>
<path class="st3" d="M-1245.08-990.74l-106.3,51.89c16.43-3.12,51.95-9.92,51.95-9.92c2.68,17.2,3.08,25.45,3.08,33.82
	c0,141.02-114.35,255.33-255.38,255.33c-63.02,0-120.75-22.84-165.3-60.74l32.68-44.28l-115.35,59.03
	c72.64,66.7,155.7,106.31,247.96,106.31c174.34,0,315.66-141.32,315.66-315.66C-1236.07-935.05-1237.96-954.73-1245.08-990.74z"/>
<path class="st2" d="M-1807.06-914.94c0-141.02,114.35-255.33,255.33-255.33c114.1,0,210.71,74.83,244.62,182.69l119.84-65.99
	l-72.34,19.36c-47.42-121.53-158.37-196.38-292.11-196.38c-174.29,0-315.62,141.32-315.62,315.66c0,59.52,16.49,115.21,45.15,162.75
	l-42.82,56.7l111.98-67.51C-1789.67-809-1807.06-859.92-1807.06-914.94z"/>
<path class="st4" d="M-1204.37-1045.76"/>
<path class="st5" d="M-1827.97-717.43"/>
<path class="st4" d="M-1204.37-992.4"/>
<path class="st5" d="M-1814.4-686.55"/>
<path class="st2" d="M-560.34-767.88l-103.9,0.61l50.04,3.29c-39.1,63.77-109.45,106.32-189.74,106.32
	c-79.9,0-149.96-42.13-189.18-105.4c-21.07-33.99-33.23-74.07-33.23-117c0-25.91,5.74-54.6,13.88-77.72l62.4-7.16h-109.9
	c-10.53,31.2-14.58,57.57-14.58,84.89c0,149.45,121.16,270.61,270.61,270.61c110.39,0,204.24-63.66,246.33-158.44L-560.34-767.88z"
	/>
<path class="st3" d="M-803.94-1150.68c-103.67,0-193.72,58.3-239.17,143.9l-110.32,9.91h160.19
	c39.19-63.38,109.32-105.6,189.3-105.6s150.11,42.22,189.29,105.6c21,33.94,33.11,73.96,33.11,116.8c0,28.29-5.64,56.68-15.28,81.57
	l133.51-1.33l-80.33-6.06c6.71-23.57,10.3-48.46,10.3-74.18C-533.33-1029.52-654.49-1150.68-803.94-1150.68z"/>
<linearGradient id="SVGID_00000142143778882010479430000014127952527184026758_" gradientUnits="userSpaceOnUse" x1="9.8626" y1="-981.3098" x2="205.7184" y2="-1320.5421">
	<stop  offset="8.292820e-08" style="stop-color:#ED1C24"/>
	<stop  offset="0.1069" style="stop-color:#DF1B28"/>
	<stop  offset="0.3078" style="stop-color:#BB1A33"/>
	<stop  offset="0.5812" style="stop-color:#811845"/>
	<stop  offset="0.9134" style="stop-color:#31155D"/>
	<stop  offset="1" style="stop-color:#1B1464"/>
</linearGradient>
<path style="fill:url(#SVGID_00000142143778882010479430000014127952527184026758_);stroke:#000000;stroke-width:0.5;stroke-miterlimit:10;" d="
	M42.21-1066.38l273.24-2.73l-15.39,31.2l-380.91,4.23l187.09-110.62l-92,19.44l150.53-109.59l-263.34-1.59
	c2.28-5.98,8.75-21.38,17.6-31.44c126.2,0,252.39,0,378.59,0l-147.95,91.58l95.27-8.18l-130.91,65.74l46.63,0.34L42.21-1066.38z"/>
<linearGradient id="SVGID_00000088851916934624487160000005446171755294636186_" gradientUnits="userSpaceOnUse" x1="1657.5281" y1="-28.837" x2="1853.3839" y2="-368.0693">
	<stop  offset="8.292820e-08" style="stop-color:#ED1C24"/>
	<stop  offset="0.1069" style="stop-color:#DF1B28"/>
	<stop  offset="0.3078" style="stop-color:#BB1A33"/>
	<stop  offset="0.5812" style="stop-color:#811845"/>
	<stop  offset="0.9134" style="stop-color:#31155D"/>
	<stop  offset="1" style="stop-color:#1B1464"/>
</linearGradient>
<path style="fill:url(#SVGID_00000088851916934624487160000005446171755294636186_);stroke:#000000;stroke-width:0.5;stroke-miterlimit:10;" d="
	M1689.88-113.91l273.24-2.73l-15.39,31.2l-380.91,4.23l187.09-110.62l-92,19.44l150.53-109.59l-263.34-1.59
	c2.28-5.98,8.75-21.38,17.6-31.44c126.2,0,252.39,0,378.59,0l-147.95,91.58l95.27-8.18l-130.91,65.74l46.63,0.34L1689.88-113.91z"/>
<path class="st1" d="M378.63-1256.52"/>
<path class="st1" d="M-166.65-958.86"/>
<path class="st1" d="M378.63-1215.15"/>
<path class="st1" d="M-153.07-927.98"/>
<path class="st2" d="M351.93-1038.49l-103.9,0.61l50.04,3.29c-39.1,63.77-109.45,106.32-189.74,106.32
	c-79.9,0-149.96-42.13-189.18-105.4c-21.07-33.99-33.23-74.07-33.23-117c0-25.91,5.74-54.6,13.88-77.72l62.4-7.16h-109.9
	c-10.53,31.2-14.58,57.57-14.58,84.89c0,149.45,121.16,270.61,270.61,270.61c110.39,0,204.24-63.66,246.33-158.44L351.93-1038.49z"
	/>
<path class="st3" d="M108.33-1421.29c-103.67,0-193.72,58.3-239.17,143.9l-110.32,9.91h160.19c39.19-63.38,109.32-105.6,189.3-105.6
	s150.11,42.22,189.29,105.6c21,33.94,33.11,73.96,33.11,116.8c0,28.29-5.64,56.68-15.28,81.57l133.51-1.33l-80.33-6.06
	c6.71-23.57,10.3-48.46,10.3-74.18C378.94-1300.13,257.78-1421.29,108.33-1421.29z"/>
<g>
	
		<linearGradient id="SVGID_00000055701339321226086350000016784384614650178468_" gradientUnits="userSpaceOnUse" x1="-364.1547" y1="-633.6383" x2="-302.5507" y2="-633.6383">
		<stop  offset="3.317128e-07" style="stop-color:#FF1D25"/>
		<stop  offset="1" style="stop-color:#1B1464"/>
	</linearGradient>
	<path style="fill:url(#SVGID_00000055701339321226086350000016784384614650178468_);stroke:#000000;stroke-miterlimit:10;" d="
		M-302.55-634.34c0,23.2-14.1,35.5-31.3,35.5c-17.8,0-30.3-13.8-30.3-34.2c0-21.4,13.3-35.4,31.3-35.4
		C-314.45-668.44-302.55-654.34-302.55-634.34z M-354.85-633.24c0,14.4,7.8,27.3,21.5,27.3c13.8,0,21.6-12.7,21.6-28
		c0-13.4-7-27.4-21.5-27.4C-347.65-661.34-354.85-648.04-354.85-633.24z"/>
	
		<linearGradient id="SVGID_00000114752041823841938720000012308838151561983126_" gradientUnits="userSpaceOnUse" x1="-291.3544" y1="-633.0885" x2="-241.6513" y2="-633.0885">
		<stop  offset="3.317128e-07" style="stop-color:#FF1D25"/>
		<stop  offset="1" style="stop-color:#1B1464"/>
	</linearGradient>
	<path style="fill:url(#SVGID_00000114752041823841938720000012308838151561983126_);stroke:#000000;stroke-miterlimit:10;" d="
		M-282.55-667.34v39.9c0,15.1,6.7,21.5,15.7,21.5c10,0,16.4-6.6,16.4-21.5v-39.9h8.8v39.3c0,20.7-10.9,29.2-25.5,29.2
		c-13.8,0-24.2-7.9-24.2-28.8v-39.7H-282.55z"/>
	
		<linearGradient id="SVGID_00000137116680028633350940000000878212264981569174_" gradientUnits="userSpaceOnUse" x1="-234.2548" y1="-633.6383" x2="-184.3515" y2="-633.6383">
		<stop  offset="3.317128e-07" style="stop-color:#FF1D25"/>
		<stop  offset="1" style="stop-color:#1B1464"/>
	</linearGradient>
	<path style="fill:url(#SVGID_00000137116680028633350940000000878212264981569174_);stroke:#000000;stroke-miterlimit:10;" d="
		M-213.75-659.94h-20.5v-7.4h49.9v7.4h-20.6v60h-8.8V-659.94z"/>
	
		<linearGradient id="SVGID_00000052087008984051122240000000221014186771700663_" gradientUnits="userSpaceOnUse" x1="-160.2558" y1="-633.6383" x2="-111.0522" y2="-633.6383">
		<stop  offset="3.317128e-07" style="stop-color:#FF1D25"/>
		<stop  offset="1" style="stop-color:#1B1464"/>
	</linearGradient>
	<path style="fill:url(#SVGID_00000052087008984051122240000000221014186771700663_);" d="M-160.26-605.04l37.4-54.7v-0.3h-34.2
		v-7.3h45.5v5.3l-37.2,54.5v0.3h37.7v7.3h-49.2V-605.04z"/>
	
		<linearGradient id="SVGID_00000016050982233714309870000008226709649586889884_" gradientUnits="userSpaceOnUse" x1="-106.4555" y1="-633.6383" x2="-44.852" y2="-633.6383">
		<stop  offset="3.317128e-07" style="stop-color:#FF1D25"/>
		<stop  offset="1" style="stop-color:#1B1464"/>
	</linearGradient>
	<path style="fill:url(#SVGID_00000016050982233714309870000008226709649586889884_);" d="M-44.85-634.34
		c0,23.2-14.1,35.5-31.3,35.5c-17.8,0-30.3-13.8-30.3-34.2c0-21.4,13.3-35.4,31.3-35.4C-56.75-668.44-44.85-654.34-44.85-634.34z
		 M-97.16-633.24c0,14.4,7.8,27.3,21.5,27.3c13.8,0,21.6-12.7,21.6-28c0-13.4-7-27.4-21.5-27.4
		C-89.95-661.34-97.16-648.04-97.16-633.24z"/>
	
		<linearGradient id="SVGID_00000090985775217635480630000016410229096354838446_" gradientUnits="userSpaceOnUse" x1="-33.5551" y1="-633.6383" x2="17.0475" y2="-633.6383">
		<stop  offset="3.317128e-07" style="stop-color:#FF1D25"/>
		<stop  offset="1" style="stop-color:#1B1464"/>
	</linearGradient>
	<path style="fill:url(#SVGID_00000090985775217635480630000016410229096354838446_);" d="M-33.56-599.94v-67.4h9.5l21.6,34.1
		c5,7.9,8.9,15,12.1,21.9l0.2-0.1c-0.8-9-1-17.2-1-27.7v-28.2h8.2v67.4h-8.8l-21.4-34.2c-4.7-7.5-9.2-15.2-12.6-22.5l-0.3,0.1
		c0.5,8.5,0.7,16.6,0.7,27.8v28.8H-33.56z"/>
	
		<linearGradient id="SVGID_00000156589054936587045010000009996157654659186084_" gradientUnits="userSpaceOnUse" x1="32.2447" y1="-633.6383" x2="70.1471" y2="-633.6383">
		<stop  offset="3.317128e-07" style="stop-color:#FF1D25"/>
		<stop  offset="1" style="stop-color:#1B1464"/>
	</linearGradient>
	<path style="fill:url(#SVGID_00000156589054936587045010000009996157654659186084_);" d="M67.15-631.54h-26.2v24.3h29.2v7.3h-37.9
		v-67.4h36.4v7.3h-27.7v21.3h26.2V-631.54z"/>
</g>
<g>
	<g>
		<path class="st5" d="M-2577.43-878.86c-5.11,15.26-16.29,19.96-26.62,15.81c-10.7-4.29-15.17-16.38-10.68-29.8
			c4.71-14.08,15.79-20.08,26.6-15.74C-2577.07-904.16-2573.03-892.01-2577.43-878.86z M-2609.1-890.74
			c-3.17,9.47-1.32,19.84,6.91,23.14c8.29,3.33,15.78-3.15,19.14-13.21c2.95-8.82,1.83-19.71-6.89-23.21
			C-2598.58-907.49-2605.84-900.48-2609.1-890.74z"/>
		<path class="st5" d="M-2559.76-897.99l-5.35,27.34c-2.02,10.34,1.31,15.71,6.94,17.03c6.26,1.47,11.15-2.12,13.14-12.32
			l5.35-27.34l5.51,1.29l-5.27,26.92c-2.77,14.18-10.73,18.41-19.87,16.27c-8.64-2.02-14.09-8.96-11.29-23.28l5.32-27.2
			L-2559.76-897.99z"/>
		<path class="st5" d="M-2518.75-885.18l-13.08-1.18l0.39-5.17l31.83,2.88l-0.39,5.17l-13.14-1.19l-3.17,41.9l-5.61-0.51
			L-2518.75-885.18z"/>
		<path class="st5" d="M-2483.57-845.15l21.14-40.26l-0.01-0.21l-21.82,1.87l-0.36-5.1l29.03-2.49l0.26,3.7l-21.02,40.11l0.02,0.21
			l24.06-2.06l0.36,5.1l-31.4,2.69L-2483.57-845.15z"/>
		<path class="st5" d="M-2411.36-877.25c2.97,15.93-4.3,26.35-15.08,28.76c-11.16,2.5-20.77-5.23-23.38-19.23
			c-2.74-14.69,3.81-26.17,15.1-28.69C-2423.19-898.99-2413.92-890.98-2411.36-877.25z M-2444.02-869.16
			c1.84,9.89,8.39,17.65,16.98,15.73c8.65-1.93,11.92-11.75,9.96-22.25c-1.71-9.2-7.9-17.83-16.99-15.8
			C-2443.1-889.46-2445.92-879.32-2444.02-869.16z"/>
		<path class="st5" d="M-2396.43-857.06l-14.23-44.58l5.74-2.2l20.25,17.56c4.69,4.07,8.54,7.86,11.93,11.69l0.1-0.11
			c-2.38-5.77-4.24-11.14-6.45-18.09l-5.96-18.65l4.95-1.9l14.23,44.58l-5.32,2.03l-20.15-17.67c-4.42-3.87-8.77-7.93-12.36-11.97
			l-0.16,0.14c2.1,5.51,3.93,10.82,6.29,18.23l6.08,19.05L-2396.43-857.06z"/>
		<path class="st5" d="M-2342.86-905.55l-15,8.21l6.96,15.23l16.72-9.15l2.09,4.58l-21.7,11.88l-19.29-42.25l20.84-11.41l2.09,4.58
			l-15.86,8.68l6.1,13.35l15-8.21L-2342.86-905.55z"/>
	</g>
</g>
<polygon class="st5" points="-2238.37,-1724.89 -2296.72,-1687.43 -2605.85,-1684.54 -2414.51,-1808.97 -2518.19,-1787.05 
	-2337.44,-1911.22 -2564.46,-1912.14 -2598.37,-1947.77 -2218.48,-1942.98 -2365.58,-1844.57 -2258.24,-1853.79 -2405.73,-1779.72 
	-2353.2,-1779.33 -2486.67,-1721.16 "/>
<path class="st5" d="M-2105.62-1892.74l-106.3,51.89c16.43-3.12,51.95-9.92,51.95-9.92c2.68,17.2,3.08,25.45,3.08,33.82
	c0,141.02-114.35,255.33-255.38,255.33c-63.02,0-120.75-22.84-165.3-60.74l32.68-44.28l-115.35,59.03
	c72.64,66.7,155.7,106.31,247.96,106.31c174.34,0,315.66-141.32,315.66-315.66C-2096.61-1837.05-2098.5-1856.73-2105.62-1892.74z"/>
<path class="st5" d="M-2667.6-1816.94c0-141.02,114.35-255.33,255.33-255.33c114.1,0,210.71,74.83,244.62,182.69l119.84-65.99
	l-72.34,19.36c-47.42-121.53-158.37-196.38-292.11-196.38c-174.29,0-315.62,141.32-315.62,315.66c0,59.52,16.49,115.21,45.15,162.75
	l-42.82,56.7l111.98-67.51C-2650.21-1711.01-2667.6-1761.93-2667.6-1816.94z"/>
<path class="st4" d="M-2064.91-1947.77"/>
<path class="st5" d="M624.51-737.06"/>
<path class="st4" d="M-2064.91-1894.41"/>
<path class="st5" d="M638.08-706.17"/>
<g>
	<g>
		<path class="st5" d="M-2498.96-1476.21c-5.11,15.26-16.29,19.95-26.62,15.81c-10.7-4.29-15.17-16.38-10.68-29.8
			c4.71-14.08,15.79-20.08,26.6-15.74C-2498.6-1501.51-2494.56-1489.36-2498.96-1476.21z M-2530.63-1488.09
			c-3.17,9.47-1.32,19.84,6.91,23.14c8.29,3.33,15.78-3.15,19.14-13.21c2.95-8.82,1.83-19.71-6.89-23.21
			C-2520.11-1504.84-2527.37-1497.83-2530.63-1488.09z"/>
		<path class="st5" d="M-2481.29-1495.34l-5.35,27.34c-2.02,10.34,1.31,15.71,6.94,17.03c6.26,1.47,11.15-2.12,13.14-12.32
			l5.35-27.34l5.51,1.29l-5.27,26.92c-2.77,14.18-10.73,18.41-19.87,16.27c-8.64-2.02-14.09-8.96-11.29-23.28l5.32-27.2
			L-2481.29-1495.34z"/>
		<path class="st5" d="M-2440.28-1482.53l-13.08-1.18l0.39-5.17l31.83,2.88l-0.39,5.17l-13.14-1.19l-3.17,41.9l-5.61-0.51
			L-2440.28-1482.53z"/>
		<path class="st5" d="M-2405.1-1442.5l21.14-40.26l-0.01-0.21l-21.82,1.87l-0.36-5.1l29.03-2.49l0.26,3.7l-21.02,40.11l0.02,0.21
			l24.06-2.06l0.36,5.1l-31.4,2.69L-2405.1-1442.5z"/>
		<path class="st5" d="M-2332.89-1474.6c2.97,15.93-4.3,26.35-15.08,28.76c-11.16,2.5-20.77-5.23-23.38-19.23
			c-2.74-14.69,3.81-26.17,15.1-28.69C-2344.72-1496.35-2335.45-1488.33-2332.89-1474.6z M-2365.55-1466.51
			c1.84,9.89,8.39,17.65,16.98,15.73c8.65-1.93,11.92-11.75,9.96-22.25c-1.71-9.2-7.9-17.83-16.99-15.8
			C-2364.63-1486.82-2367.45-1476.68-2365.55-1466.51z"/>
		<path class="st5" d="M-2317.96-1454.41l-14.23-44.58l5.74-2.2l20.25,17.56c4.69,4.07,8.54,7.86,11.93,11.69l0.1-0.11
			c-2.38-5.77-4.24-11.14-6.45-18.09l-5.96-18.65l4.95-1.9l14.23,44.58l-5.32,2.03l-20.15-17.67c-4.42-3.87-8.77-7.93-12.36-11.97
			l-0.16,0.14c2.1,5.51,3.93,10.82,6.29,18.23l6.08,19.05L-2317.96-1454.41z"/>
		<path class="st5" d="M-2264.39-1502.9l-15,8.21l6.96,15.23l16.72-9.15l2.09,4.58l-21.7,11.88l-19.29-42.25l20.84-11.41l2.09,4.58
			l-15.86,8.68l6.1,13.35l15-8.21L-2264.39-1502.9z"/>
	</g>
</g>
<path class="st2" d="M-1686.52,351.9v-17.78c0-4.68,1.94-8.78,5.83-12.29c3.89-3.51,8.51-5.27,13.85-5.27h86.28
	c5.35,0,9.92,1.72,13.73,5.16c3.81,3.44,5.71,7.57,5.71,12.4v17.78H-1686.52z M-1580.56,458.14h-86.28c-5.35,0-9.96-1.76-13.85-5.27
	c-3.89-3.51-5.83-7.68-5.83-12.51v-81.44h39.37v63.88h46.91v-63.88h39.13v81.44c0,4.83-1.86,9-5.59,12.51
	C-1570.43,456.38-1575.05,458.14-1580.56,458.14z"/>
<path class="st2" d="M-1543,382.58c-2.25,0-4.2-0.82-5.83-2.46c-1.64-1.64-2.46-3.58-2.46-5.83v-57.73h16.58v49.54h19.75v-49.54
	h16.48v66.02H-1543z"/>
<path class="st2" d="M-1475.45,382.58v-49.54h-16.48v-16.48h32.96v66.02H-1475.45z M-1443.61,333.04h-12.08v-16.48h23.13
	L-1443.61,333.04z"/>
<path class="st3" d="M-1709.06,458.79h-74.22c-4.55,0-8.48-1.65-11.78-4.96c-3.31-3.31-4.96-7.24-4.96-11.78v-16.54l61.4-66.77
	h-61.4l22.33-33.28h67.81c4.55,0,8.44,1.62,11.68,4.86c3.24,3.24,4.86,7.13,4.86,11.68v16.75l-61.4,66.77h68.22L-1709.06,458.79z"/>
<path class="st3" d="M-1507.2,458.14c-4.64,0-8.29-2.05-10.95-6.14l-22.41-34.59v40.74h-16.48v-53.12c0-3.55,1.26-6.58,3.79-9.11
	c2.52-2.52,5.56-3.79,9.11-3.79c4.64,0,8.26,2.05,10.85,6.14l22.41,34.59v-40.74h16.58v53.12c0,3.55-1.26,6.59-3.79,9.11
	C-1500.61,456.88-1503.65,458.14-1507.2,458.14z"/>
<path class="st3" d="M-1445.99,458.14h-41.76v-66.02h41.76l11.05,16.48h-36.23v33.06h36.23L-1445.99,458.14z M-1455.82,433.37
	h-12.08v-16.48h23.13L-1455.82,433.37z"/>
<path class="st2" d="M-1310.34,576.28V558.5c0-4.68,1.94-8.78,5.83-12.29c3.89-3.51,8.51-5.27,13.85-5.27h86.28
	c5.35,0,9.92,1.72,13.73,5.16c3.81,3.44,5.71,7.57,5.71,12.4v17.78H-1310.34z M-1204.37,682.52h-86.28c-5.35,0-9.96-1.76-13.85-5.27
	c-3.89-3.51-5.83-7.68-5.83-12.51V583.3h39.37v63.88h46.91V583.3h39.13v81.44c0,4.83-1.86,9-5.59,12.51
	C-1194.25,680.76-1198.87,682.52-1204.37,682.52z"/>
<path class="st2" d="M-1166.82,606.95c-2.25,0-4.2-0.82-5.83-2.46c-1.64-1.64-2.46-3.58-2.46-5.83v-57.73h16.58v49.54h19.75v-49.54
	h16.48v66.02H-1166.82z"/>
<path class="st2" d="M-1099.26,606.95v-49.54h-16.48v-16.48h32.96v66.02H-1099.26z M-1067.43,557.42h-12.08v-16.48h23.13
	L-1067.43,557.42z"/>
<path class="st3" d="M-1332.88,683.17h-74.22c-4.55,0-8.48-1.65-11.78-4.96c-3.31-3.31-4.96-7.24-4.96-11.78v-16.54l61.4-66.77
	h-61.4l22.33-33.28h67.81c4.55,0,8.44,1.62,11.68,4.86c3.24,3.24,4.86,7.13,4.86,11.68v16.75l-61.4,66.77h68.22L-1332.88,683.17z"/>
<path class="st3" d="M-1131.02,682.52c-4.64,0-8.29-2.05-10.95-6.14l-22.41-34.59v40.74h-16.48V629.4c0-3.55,1.26-6.58,3.79-9.11
	c2.52-2.52,5.56-3.79,9.11-3.79c4.64,0,8.26,2.05,10.85,6.14l22.41,34.59V616.5h16.58v53.12c0,3.55-1.26,6.59-3.79,9.11
	C-1124.43,681.26-1127.47,682.52-1131.02,682.52z"/>
<path class="st3" d="M-1069.81,682.52h-41.76V616.5h41.76l11.05,16.48h-36.23v33.06h36.23L-1069.81,682.52z M-1079.64,657.75h-12.08
	v-16.48h23.13L-1079.64,657.75z"/>
<path class="st3" d="M-1735.28-618.87l3.33-7.46c0.88-1.96,2.46-3.32,4.75-4.06c2.29-0.74,4.55-0.61,6.8,0.39l36.18,16.17
	c2.24,1,3.84,2.58,4.79,4.74c0.95,2.16,0.98,4.25,0.07,6.27l-3.33,7.46L-1735.28-618.87z M-1710.77-554.46l-36.18-16.17
	c-2.24-1-3.85-2.6-4.82-4.81c-0.97-2.2-1.01-4.31-0.1-6.34l15.27-34.15l16.51,7.38l-11.97,26.78l19.67,8.79l11.97-26.78l16.41,7.33
	l-15.27,34.15c-0.91,2.02-2.47,3.42-4.69,4.2C-1706.19-553.29-1708.46-553.42-1710.77-554.46z"/>
<path class="st2" d="M-1450.41-589.9l-3.15-7.53c-0.83-1.98-0.73-4.07,0.29-6.24s2.67-3.74,4.94-4.69l36.56-15.28
	c2.27-0.95,4.51-1.03,6.73-0.25c2.22,0.78,3.76,2.2,4.62,4.24l3.15,7.53L-1450.41-589.9z M-1386.69-563.65l-36.56,15.28
	c-2.27,0.95-4.53,1.02-6.8,0.22c-2.27-0.8-3.83-2.22-4.69-4.27l-14.42-34.51l16.69-6.97l11.31,27.07l19.88-8.31l-11.31-27.07
	l16.58-6.93l14.42,34.51c0.86,2.05,0.8,4.14-0.15,6.29C-1382.71-566.19-1384.35-564.63-1386.69-563.65z"/>
<path class="st2" d="M-1671.09-541.76c-2.2-0.47-3.93-1.68-5.19-3.63c-1.26-1.95-1.65-4.02-1.17-6.22l12.16-56.43l16.21,3.49
	l-10.44,48.43l19.31,4.16l10.44-48.43l16.11,3.47l-13.91,64.53L-1671.09-541.76z"/>
<path class="st2" d="M-1582.36-526.1l2.41-49.48l-16.46-0.8l0.8-16.46l32.92,1.6l-3.21,65.94L-1582.36-526.1z M-1548.16-574.03
	l-12.06-0.59l0.8-16.46l23.1,1.13L-1548.16-574.03z"/>
<path class="st3" d="M-1462.3-535.39l-36.51,7.43c-2.24,0.46-4.34,0.03-6.29-1.26c-1.96-1.3-3.17-3.06-3.62-5.3l-1.66-8.14l23.52-39
	l-30.21,6.15l7.65-18.61l33.36-6.79c2.24-0.46,4.31-0.05,6.23,1.22c1.92,1.27,3.1,3.02,3.56,5.26l1.68,8.24l-23.52,39l33.56-6.83
	L-1462.3-535.39z"/>
<path class="st3" d="M-1317.53-603.37c-3.87,2.57-8.04,2.88-12.52,0.95l-37.81-16.41l22.54,33.93l-13.73,9.12l-29.4-44.24
	c-1.96-2.95-2.59-6.18-1.89-9.68c0.71-3.5,2.54-6.23,5.49-8.2c3.86-2.57,8.01-2.86,12.43-0.89l37.81,16.41l-22.54-33.93l13.81-9.18
	l29.4,44.24c1.96,2.96,2.59,6.18,1.89,9.68C-1312.74-608.06-1314.58-605.33-1317.53-603.37z"/>
<path class="st3" d="M-1258.93-655.01l-29.79,29.27l-46.27-47.09l29.79-29.27l19.43,4.01l-25.84,25.39l23.17,23.58l25.84-25.39
	L-1258.93-655.01z M-1283.3-665.79l-8.61,8.46l-11.55-11.75l16.5-16.21L-1283.3-665.79z"/>
<g>
	<path class="st15" d="M-1022.78-380.43v-14.74c0-3.88,1.46-7.28,4.37-10.19c2.91-2.91,6.37-4.37,10.37-4.37h64.59
		c4,0,7.43,1.43,10.28,4.28c2.85,2.85,4.28,6.28,4.28,10.28v14.74H-1022.78z M-943.46-292.37h-64.59c-4,0-7.46-1.46-10.37-4.37
		c-2.91-2.91-4.37-6.37-4.37-10.37v-67.5h29.47v52.94h35.11v-52.94h29.29v67.5c0,4-1.4,7.46-4.18,10.37
		C-935.88-293.82-939.33-292.37-943.46-292.37z"/>
	<path class="st15" d="M-902.52-292.37c-4,0-7.46-1.46-10.37-4.37c-2.91-2.91-4.37-6.37-4.37-10.37v-102.61h29.47v88.06h35.11
		v-88.06h29.29v117.35H-902.52z"/>
	<path class="st15" d="M-782.44-292.37v-88.06h-29.29v-29.29h58.59v117.35H-782.44z M-725.86-380.43h-21.47v-29.29h41.12
		L-725.86-380.43z"/>
</g>
<g>
	<path class="st16" d="M-2154.88,235.74h-65.32c-4,0-7.46-1.46-10.37-4.37c-2.91-2.91-4.37-6.37-4.37-10.37v-14.56l54.04-58.77
		h-54.04l19.65-29.29h59.68c4,0,7.43,1.43,10.28,4.28c2.85,2.85,4.28,6.28,4.28,10.28v14.74l-54.04,58.77h60.04L-2154.88,235.74z"/>
	<path class="st16" d="M-2127.95,147.13V132.4c0-3.88,1.46-7.28,4.37-10.19c2.91-2.91,6.37-4.37,10.37-4.37h64.59
		c4,0,7.43,1.43,10.28,4.28c2.85,2.85,4.28,6.28,4.28,10.28v14.74H-2127.95z M-2048.62,235.19h-64.59c-4,0-7.46-1.46-10.37-4.37
		c-2.91-2.91-4.37-6.37-4.37-10.37v-67.5h29.47v52.94h35.11v-52.94h29.29v67.5c0,4-1.4,7.46-4.18,10.37
		C-2041.04,233.74-2044.5,235.19-2048.62,235.19z"/>
	<path class="st16" d="M-1933.82,235.19c-8.25,0-14.74-3.64-19.47-10.92l-39.85-61.5v72.41h-29.29v-94.43
		c0-6.31,2.24-11.7,6.73-16.19c4.49-4.49,9.88-6.73,16.19-6.73c8.25,0,14.67,3.64,19.29,10.92l39.85,61.5v-72.41h29.47v94.43
		c0,6.31-2.25,11.71-6.73,16.19C-1922.11,232.95-1927.51,235.19-1933.82,235.19z"/>
	<path class="st16" d="M-1825.02,235.19h-74.23V117.84h74.23l19.65,29.29h-64.41v58.77h64.41L-1825.02,235.19z M-1842.48,191.16
		h-21.47v-29.29h41.12L-1842.48,191.16z"/>
</g>
<g>
	<path class="st3" d="M-1704.9-90.7v-14.74c0-3.88,1.46-7.28,4.37-10.19c2.91-2.91,6.37-4.37,10.37-4.37h64.59
		c4,0,7.43,1.43,10.28,4.28c2.85,2.85,4.28,6.28,4.28,10.28v14.74H-1704.9z M-1625.57-2.64h-64.59c-4,0-7.46-1.46-10.37-4.37
		c-2.91-2.91-4.37-6.37-4.37-10.37v-67.5h29.47v52.94h35.11v-52.94h29.29v67.5c0,4-1.4,7.46-4.18,10.37
		C-1617.99-4.1-1621.45-2.64-1625.57-2.64z"/>
	<path class="st3" d="M-1584.63-2.64c-4,0-7.46-1.46-10.37-4.37c-2.91-2.91-4.37-6.37-4.37-10.37v-102.61h29.47v88.06h35.11v-88.06
		h29.29V-2.64H-1584.63z"/>
	<path class="st3" d="M-1464.55-2.64V-90.7h-29.29v-29.29h58.59V-2.64H-1464.55z M-1407.97-90.7h-21.47v-29.29h41.12L-1407.97-90.7z
		"/>
</g>
<g>
	<path class="st2" d="M-1686.47,132.23h-65.32c-4,0-7.46-1.46-10.37-4.37c-2.91-2.91-4.37-6.37-4.37-10.37v-14.56l54.04-58.77
		h-54.04l19.65-29.29h59.68c4,0,7.43,1.43,10.28,4.28c2.85,2.85,4.28,6.28,4.28,10.28v14.74l-54.04,58.77h60.04L-1686.47,132.23z"/>
	<path class="st2" d="M-1659.55,43.63V28.89c0-3.88,1.46-7.28,4.37-10.19c2.91-2.91,6.37-4.37,10.37-4.37h64.59
		c4,0,7.43,1.43,10.28,4.28c2.85,2.85,4.28,6.28,4.28,10.28v14.74H-1659.55z M-1580.22,131.68h-64.59c-4,0-7.46-1.46-10.37-4.37
		c-2.91-2.91-4.37-6.37-4.37-10.37v-67.5h29.47v52.94h35.11V49.45h29.29v67.5c0,4-1.4,7.46-4.18,10.37
		C-1572.64,130.23-1576.1,131.68-1580.22,131.68z"/>
	<path class="st2" d="M-1465.42,131.68c-8.25,0-14.74-3.64-19.47-10.92l-39.85-61.5v72.41h-29.29V37.26c0-6.31,2.24-11.7,6.73-16.19
		c4.49-4.49,9.88-6.73,16.19-6.73c8.25,0,14.67,3.64,19.29,10.92l39.85,61.5V14.33h29.47v94.43c0,6.31-2.25,11.71-6.73,16.19
		C-1453.71,129.44-1459.11,131.68-1465.42,131.68z"/>
	<path class="st2" d="M-1356.61,131.68h-74.23V14.33h74.23l19.65,29.29h-64.41v58.77h64.41L-1356.61,131.68z M-1374.08,87.65h-21.47
		V58.36h41.12L-1374.08,87.65z"/>
</g>
<path class="st17" d="M46.15-683.21"/>
<path class="st17" d="M-1631.08-1258.27"/>
<linearGradient id="SVGID_00000063609886412685183170000002348907439370345115_" gradientUnits="userSpaceOnUse" x1="-2633.6089" y1="-1084.4557" x2="-2335.6685" y2="-1084.4557">
	<stop  offset="8.292820e-08" style="stop-color:#ED1C24"/>
	<stop  offset="0.1069" style="stop-color:#DF1B28"/>
	<stop  offset="0.3078" style="stop-color:#BB1A33"/>
	<stop  offset="0.5812" style="stop-color:#811845"/>
	<stop  offset="0.9134" style="stop-color:#31155D"/>
	<stop  offset="1" style="stop-color:#1B1464"/>
</linearGradient>
<path style="fill:url(#SVGID_00000063609886412685183170000002348907439370345115_);stroke:#000000;stroke-width:0.5;stroke-miterlimit:10;" d="
	M-2360.91-1067.9l25.24-52.54l-56.57,29.7c0,0,11.3,31.22-32.22,39.59c0,0-32.2,2.28-36.13-29.68c0,0-0.64-17.51,16.01-27.8
	c0,0-32.32-37.11-40.81-63.95c0,0-22.2,47.95-42.42,64.53c0,0,43.09,23.4-1.97,53.1c0,0-30.05,13.13-47-15.99
	c0,0-4.58-5.14-1.97-22.28l-54.85-26.26c0,0,28.08,56.54,30.69,67.95c0,0,5.88,15.43,37.87,25.7h-29.38l8.92,29.5h199.36
	l10.43-29.68h-32.2C-2407.91-1026.01-2373.95-1033.64-2360.91-1067.9z M-2516.72-1026.39c0,0,23.71-12.57,32.09-25.14
	c0,0.13,0.1,10.4,29.28,25.14H-2516.72z"/>
<linearGradient id="SVGID_00000096042251762620961580000006677608935225446051_" gradientUnits="userSpaceOnUse" x1="830.5387" y1="-56.4223" x2="914.911" y2="-56.4223" gradientTransform="matrix(-0.1892 -0.9819 -0.9819 0.1892 43.9934 36.3244)">
	<stop  offset="8.292820e-08" style="stop-color:#ED1C24"/>
	<stop  offset="0.1069" style="stop-color:#DF1B28"/>
	<stop  offset="0.3078" style="stop-color:#BB1A33"/>
	<stop  offset="0.5812" style="stop-color:#811845"/>
	<stop  offset="0.9134" style="stop-color:#31155D"/>
	<stop  offset="1" style="stop-color:#1B1464"/>
</linearGradient>
<polygon style="fill:url(#SVGID_00000096042251762620961580000006677608935225446051_);" points="-142.76,-788.81 -60.55,-875.27 
	-55.99,-833.3 11.35,-873.24 -72.67,-787.01 -74.43,-829.74 "/>
<g>
	
		<linearGradient id="SVGID_00000057138800458821015510000011670698843333468066_" gradientUnits="userSpaceOnUse" x1="928.6902" y1="768.7286" x2="1265.8701" y2="768.7286">
		<stop  offset="1.658564e-07" style="stop-color:#FAA12D"/>
		<stop  offset="0.2821" style="stop-color:#FAAF2F"/>
		<stop  offset="0.8098" style="stop-color:#F8D236"/>
		<stop  offset="1" style="stop-color:#F8E138"/>
	</linearGradient>
	<polyline style="fill:url(#SVGID_00000057138800458821015510000011670698843333468066_);" points="1109.22,801.41 1023.31,859.9 
		1180.38,714.07 962.6,713.19 928.69,677.56 1265.87,681.81 1156.54,782.68 1212.71,759.87 1103.83,838.74 	"/>
	
		<linearGradient id="SVGID_00000177455130649994735060000014234938137161714359_" gradientUnits="userSpaceOnUse" x1="915.9138" y1="878.7582" x2="1283.386" y2="878.7582">
		<stop  offset="1.658564e-07" style="stop-color:#FAA12D"/>
		<stop  offset="0.2821" style="stop-color:#FAAF2F"/>
		<stop  offset="0.8098" style="stop-color:#F8D236"/>
		<stop  offset="1" style="stop-color:#F8E138"/>
	</linearGradient>
	<polyline style="fill:url(#SVGID_00000177455130649994735060000014234938137161714359_);" points="1093.77,855.3 1170.37,799.64 
		1073.86,905.86 1079.27,872.21 1035.09,921.25 1283.39,917.53 1225.04,954.99 915.91,957.87 1102.08,812.3 	"/>
	<path class="st22" d="M1395.01,746.49l-106.3,51.89c16.43-3.12,51.95-9.92,51.95-9.92c2.68,17.2,3.08,25.45,3.08,33.82
		c0,141.02-114.35,255.33-255.38,255.33c-63.02,0-120.75-22.84-165.3-60.74l32.68-44.28l-115.35,59.03
		c72.64,66.7,155.7,106.31,247.96,106.31c174.34,0,315.66-141.32,315.66-315.66C1404.02,802.18,1402.12,782.5,1395.01,746.49z"/>
	<path class="st22" d="M833.03,822.29c0-141.02,114.35-255.33,255.33-255.33c114.1,0,210.71,74.83,244.62,182.69l119.84-65.99
		l-72.34,19.36c-47.42-121.53-158.37-196.38-292.11-196.38c-174.29,0-315.62,141.32-315.62,315.66
		c0,59.52,16.49,115.21,45.15,162.75l-42.82,56.7l111.98-67.51C850.42,928.23,833.03,877.31,833.03,822.29z"/>
	<path class="st23" d="M1435.71,691.47"/>
	<path d="M812.11,1019.79"/>
	<path class="st23" d="M1435.71,744.83"/>
	<path d="M825.69,1050.68"/>
	<path class="st22" d="M904.8,1118.36l3.33-7.46c0.88-1.96,2.46-3.32,4.75-4.06c2.29-0.74,4.55-0.61,6.8,0.39l36.18,16.17
		c2.24,1,3.84,2.58,4.79,4.74c0.95,2.16,0.98,4.25,0.07,6.27l-3.33,7.46L904.8,1118.36z M929.32,1182.77l-36.18-16.17
		c-2.24-1-3.85-2.6-4.82-4.81c-0.97-2.2-1.01-4.31-0.1-6.34l15.26-34.15l16.51,7.38l-11.97,26.78l19.67,8.79l11.97-26.78l16.41,7.33
		l-15.27,34.15c-0.91,2.02-2.47,3.42-4.69,4.2C933.89,1183.93,931.63,1183.8,929.32,1182.77z"/>
	
		<linearGradient id="SVGID_00000011712006485338982490000014392813972470278075_" gradientUnits="userSpaceOnUse" x1="1185.9741" y1="1151.2159" x2="1259.0978" y2="1151.2159">
		<stop  offset="1.658564e-07" style="stop-color:#FAA12D"/>
		<stop  offset="0.2821" style="stop-color:#FAAF2F"/>
		<stop  offset="0.8098" style="stop-color:#F8D236"/>
		<stop  offset="1" style="stop-color:#F8E138"/>
	</linearGradient>
	<path style="fill:url(#SVGID_00000011712006485338982490000014392813972470278075_);" d="M1189.68,1147.32l-3.15-7.53
		c-0.83-1.98-0.73-4.07,0.29-6.24c1.03-2.18,2.67-3.74,4.94-4.69l36.56-15.28c2.27-0.95,4.51-1.03,6.73-0.25
		c2.22,0.78,3.76,2.2,4.62,4.24l3.15,7.53L1189.68,1147.32z M1253.4,1173.58l-36.56,15.28c-2.27,0.95-4.53,1.02-6.8,0.22
		c-2.27-0.8-3.83-2.22-4.69-4.27l-14.42-34.51l16.69-6.97l11.31,27.07l19.88-8.31l-11.31-27.07l16.58-6.93l14.42,34.51
		c0.86,2.05,0.8,4.14-0.15,6.29C1257.38,1171.04,1255.74,1172.6,1253.4,1173.58z"/>
	<path class="st22" d="M968.99,1195.47c-2.2-0.47-3.93-1.68-5.19-3.63c-1.26-1.95-1.65-4.02-1.17-6.22l12.16-56.43l16.21,3.49
		l-10.44,48.43l19.31,4.16l10.44-48.43l16.11,3.47l-13.91,64.53L968.99,1195.47z"/>
	<path class="st22" d="M1057.73,1211.12l2.41-49.48l-16.46-0.8l0.8-16.46l32.92,1.6l-3.21,65.94L1057.73,1211.12z M1091.93,1163.2
		l-12.06-0.59l0.8-16.46l23.1,1.13L1091.93,1163.2z"/>
	
		<linearGradient id="SVGID_00000010304184464076856530000017398404011174951585_" gradientUnits="userSpaceOnUse" x1="1123.0189" y1="1172.7891" x2="1185.5381" y2="1172.7891">
		<stop  offset="1.658564e-07" style="stop-color:#FAA12D"/>
		<stop  offset="0.2821" style="stop-color:#FAAF2F"/>
		<stop  offset="0.8098" style="stop-color:#F8D236"/>
		<stop  offset="1" style="stop-color:#F8E138"/>
	</linearGradient>
	<path style="fill:url(#SVGID_00000010304184464076856530000017398404011174951585_);" d="M1177.78,1201.83l-36.51,7.43
		c-2.24,0.46-4.34,0.03-6.29-1.26s-3.17-3.06-3.62-5.3l-1.66-8.14l23.52-39l-30.21,6.15l7.65-18.61l33.36-6.79
		c2.24-0.46,4.31-0.05,6.23,1.22c1.92,1.27,3.1,3.02,3.56,5.26l1.68,8.24l-23.52,39l33.56-6.83L1177.78,1201.83z"/>
	
		<linearGradient id="SVGID_00000051363117492294557470000002953336163299282607_" gradientUnits="userSpaceOnUse" x1="1249.4772" y1="1116.5927" x2="1328.3284" y2="1116.5927">
		<stop  offset="1.658564e-07" style="stop-color:#FAA12D"/>
		<stop  offset="0.2821" style="stop-color:#FAAF2F"/>
		<stop  offset="0.8098" style="stop-color:#F8D236"/>
		<stop  offset="1" style="stop-color:#F8E138"/>
	</linearGradient>
	<path style="fill:url(#SVGID_00000051363117492294557470000002953336163299282607_);" d="M1322.56,1133.86
		c-3.87,2.57-8.04,2.88-12.52,0.95l-37.81-16.41l22.54,33.93l-13.73,9.12l-29.4-44.24c-1.96-2.95-2.59-6.18-1.89-9.68
		c0.71-3.5,2.54-6.23,5.49-8.2c3.86-2.57,8.01-2.86,12.43-0.89l37.81,16.41l-22.54-33.93l13.81-9.18l29.4,44.24
		c1.96,2.96,2.59,6.18,1.89,9.68C1327.34,1129.17,1325.51,1131.9,1322.56,1133.86z"/>
	
		<linearGradient id="SVGID_00000093164429242033382860000002587304514320883637_" gradientUnits="userSpaceOnUse" x1="1305.0975" y1="1073.3103" x2="1381.1531" y2="1073.3103">
		<stop  offset="1.658564e-07" style="stop-color:#FAA12D"/>
		<stop  offset="0.2821" style="stop-color:#FAAF2F"/>
		<stop  offset="0.8098" style="stop-color:#F8D236"/>
		<stop  offset="1" style="stop-color:#F8E138"/>
	</linearGradient>
	<path style="fill:url(#SVGID_00000093164429242033382860000002587304514320883637_);" d="M1381.15,1082.22l-29.79,29.27
		l-46.27-47.09l29.79-29.27l19.43,4.01l-25.84,25.39l23.17,23.58l25.84-25.39L1381.15,1082.22z M1356.78,1071.44l-8.61,8.46
		l-11.55-11.75l16.5-16.21L1356.78,1071.44z"/>
</g>
<linearGradient id="SVGID_00000150806244685289350650000006780915427933503165_" gradientUnits="userSpaceOnUse" x1="827.0697" y1="-1270.1067" x2="1164.2496" y2="-1270.1067">
	<stop  offset="1.658564e-07" style="stop-color:#FAA12D"/>
	<stop  offset="0.2821" style="stop-color:#FAAF2F"/>
	<stop  offset="0.8098" style="stop-color:#F8D236"/>
	<stop  offset="1" style="stop-color:#F8E138"/>
</linearGradient>
<polyline style="fill:url(#SVGID_00000150806244685289350650000006780915427933503165_);" points="1007.6,-1237.43 921.69,-1178.94 
	1078.76,-1324.77 860.98,-1325.65 827.07,-1361.28 1164.25,-1357.03 1054.92,-1256.15 1111.09,-1278.96 1002.21,-1200.1 "/>
<linearGradient id="SVGID_00000064344336228783124440000008473435311136857004_" gradientUnits="userSpaceOnUse" x1="814.2933" y1="-1160.0771" x2="1181.7655" y2="-1160.0771">
	<stop  offset="1.658564e-07" style="stop-color:#FAA12D"/>
	<stop  offset="0.2821" style="stop-color:#FAAF2F"/>
	<stop  offset="0.8098" style="stop-color:#F8D236"/>
	<stop  offset="1" style="stop-color:#F8E138"/>
</linearGradient>
<polyline style="fill:url(#SVGID_00000064344336228783124440000008473435311136857004_);" points="992.15,-1183.53 
	1068.75,-1239.19 972.24,-1132.98 977.65,-1166.62 933.47,-1117.58 1181.77,-1121.31 1123.42,-1083.85 814.29,-1080.96 
	1000.45,-1226.54 "/>
<path class="st22" d="M1293.39-1292.35l-106.3,51.89c16.43-3.12,51.95-9.92,51.95-9.92c2.68,17.2,3.08,25.45,3.08,33.82
	c0,141.02-114.35,255.33-255.38,255.33c-63.02,0-120.75-22.84-165.3-60.74l32.68-44.28l-115.35,59.03
	c72.64,66.7,155.7,106.31,247.96,106.31c174.34,0,315.66-141.32,315.66-315.66C1302.4-1236.66,1300.5-1256.33,1293.39-1292.35z"/>
<path class="st22" d="M731.41-1216.55c0-141.02,114.35-255.33,255.33-255.33c114.1,0,210.71,74.83,244.62,182.69l119.84-65.99
	l-72.34,19.36c-47.42-121.53-158.37-196.38-292.11-196.38c-174.29,0-315.62,141.32-315.62,315.66c0,59.52,16.49,115.21,45.15,162.75
	l-42.82,56.7l111.98-67.51C748.8-1110.61,731.41-1161.53,731.41-1216.55z"/>
<path class="st23" d="M1334.09-1347.37"/>
<path d="M710.49-1019.04"/>
<path class="st23" d="M1334.09-1294.01"/>
<path d="M724.07-988.16"/>
<path class="st22" d="M803.18-920.47l3.33-7.46c0.88-1.96,2.46-3.32,4.75-4.06s4.55-0.61,6.8,0.39l36.18,16.17
	c2.24,1,3.84,2.58,4.79,4.74c0.95,2.16,0.98,4.25,0.07,6.27l-3.33,7.46L803.18-920.47z M827.7-856.06l-36.18-16.17
	c-2.24-1-3.85-2.6-4.82-4.81c-0.97-2.2-1.01-4.31-0.1-6.34l15.27-34.15l16.51,7.38l-11.97,26.78l19.67,8.79l11.97-26.78l16.41,7.33
	l-15.26,34.15c-0.91,2.02-2.47,3.42-4.69,4.2C832.27-854.9,830.01-855.03,827.7-856.06z"/>
<linearGradient id="SVGID_00000092439665169880319260000011156504985016532103_" gradientUnits="userSpaceOnUse" x1="1084.3536" y1="-887.6194" x2="1157.4773" y2="-887.6194">
	<stop  offset="1.658564e-07" style="stop-color:#FAA12D"/>
	<stop  offset="0.2821" style="stop-color:#FAAF2F"/>
	<stop  offset="0.8098" style="stop-color:#F8D236"/>
	<stop  offset="1" style="stop-color:#F8E138"/>
</linearGradient>
<path style="fill:url(#SVGID_00000092439665169880319260000011156504985016532103_);" d="M1088.06-891.51l-3.15-7.53
	c-0.83-1.98-0.73-4.07,0.29-6.24s2.67-3.74,4.94-4.69l36.56-15.28c2.27-0.95,4.51-1.03,6.73-0.25c2.22,0.78,3.76,2.2,4.62,4.24
	l3.15,7.53L1088.06-891.51z M1151.78-865.26l-36.56,15.28c-2.27,0.95-4.53,1.02-6.8,0.22c-2.27-0.8-3.83-2.22-4.69-4.27
	l-14.42-34.51l16.69-6.97l11.31,27.07l19.88-8.31l-11.31-27.07l16.58-6.93l14.42,34.51c0.86,2.05,0.8,4.14-0.15,6.29
	C1155.76-867.8,1154.11-866.23,1151.78-865.26z"/>
<path class="st22" d="M867.37-843.37c-2.2-0.47-3.93-1.68-5.19-3.63c-1.26-1.95-1.65-4.02-1.17-6.22l12.16-56.43l16.21,3.49
	l-10.44,48.43l19.31,4.16l10.44-48.43l16.11,3.47l-13.91,64.53L867.37-843.37z"/>
<path class="st22" d="M956.11-827.71l2.41-49.48l-16.46-0.8l0.8-16.46l32.92,1.6l-3.21,65.94L956.11-827.71z M990.31-875.64
	l-12.06-0.59l0.8-16.46l23.1,1.13L990.31-875.64z"/>
<linearGradient id="SVGID_00000096754323239861153080000004434815897026108579_" gradientUnits="userSpaceOnUse" x1="1021.3985" y1="-866.0463" x2="1083.9177" y2="-866.0463">
	<stop  offset="1.658564e-07" style="stop-color:#FAA12D"/>
	<stop  offset="0.2821" style="stop-color:#FAAF2F"/>
	<stop  offset="0.8098" style="stop-color:#F8D236"/>
	<stop  offset="1" style="stop-color:#F8E138"/>
</linearGradient>
<path style="fill:url(#SVGID_00000096754323239861153080000004434815897026108579_);" d="M1076.16-837l-36.51,7.43
	c-2.24,0.46-4.34,0.03-6.29-1.26c-1.96-1.3-3.17-3.06-3.62-5.3l-1.66-8.14l23.52-39l-30.21,6.15l7.65-18.61l33.36-6.79
	c2.24-0.46,4.31-0.05,6.23,1.22c1.92,1.27,3.1,3.02,3.56,5.26l1.68,8.24l-23.52,39l33.56-6.83L1076.16-837z"/>
<linearGradient id="SVGID_00000176021003743985144470000012507800981681710779_" gradientUnits="userSpaceOnUse" x1="1147.8568" y1="-922.2427" x2="1226.708" y2="-922.2427">
	<stop  offset="1.658564e-07" style="stop-color:#FAA12D"/>
	<stop  offset="0.2821" style="stop-color:#FAAF2F"/>
	<stop  offset="0.8098" style="stop-color:#F8D236"/>
	<stop  offset="1" style="stop-color:#F8E138"/>
</linearGradient>
<path style="fill:url(#SVGID_00000176021003743985144470000012507800981681710779_);" d="M1220.94-904.97
	c-3.87,2.57-8.04,2.88-12.52,0.95l-37.81-16.41l22.54,33.93l-13.73,9.12l-29.4-44.24c-1.96-2.95-2.59-6.18-1.89-9.68
	c0.71-3.5,2.54-6.23,5.49-8.2c3.86-2.57,8.01-2.86,12.43-0.89l37.81,16.41l-22.54-33.93l13.81-9.18l29.4,44.24
	c1.96,2.96,2.59,6.18,1.89,9.68C1225.72-909.67,1223.89-906.94,1220.94-904.97z"/>
<linearGradient id="SVGID_00000093160042809011218600000009457288671509094053_" gradientUnits="userSpaceOnUse" x1="1203.4772" y1="-965.525" x2="1279.5326" y2="-965.525">
	<stop  offset="1.658564e-07" style="stop-color:#FAA12D"/>
	<stop  offset="0.2821" style="stop-color:#FAAF2F"/>
	<stop  offset="0.8098" style="stop-color:#F8D236"/>
	<stop  offset="1" style="stop-color:#F8E138"/>
</linearGradient>
<path style="fill:url(#SVGID_00000093160042809011218600000009457288671509094053_);" d="M1279.53-956.62l-29.79,29.27l-46.27-47.09
	l29.79-29.27l19.43,4.01l-25.84,25.39l23.17,23.58l25.84-25.39L1279.53-956.62z M1255.16-967.4l-8.61,8.46L1235-970.68l16.5-16.21
	L1255.16-967.4z"/>
<g>
	<path class="st17" d="M11.68,2.94"/>
	
		<linearGradient id="SVGID_00000111189614361698613550000013545949260840642432_" gradientUnits="userSpaceOnUse" x1="8.1354" y1="11.9452" x2="23.2345" y2="11.9452">
		<stop  offset="1.658564e-07" style="stop-color:#FAA12D"/>
		<stop  offset="0.2821" style="stop-color:#FAAF2F"/>
		<stop  offset="0.8098" style="stop-color:#F8D236"/>
		<stop  offset="1" style="stop-color:#F8E138"/>
	</linearGradient>
	<polyline style="fill:url(#SVGID_00000111189614361698613550000013545949260840642432_);" points="16.22,13.41 12.37,16.03 
		19.41,9.5 9.65,9.46 8.14,7.86 23.23,8.05 18.34,12.57 20.85,11.55 15.98,15.08 	"/>
	
		<linearGradient id="SVGID_00000144308382034341837050000007343343023764267964_" gradientUnits="userSpaceOnUse" x1="7.5633" y1="16.8724" x2="24.0189" y2="16.8724">
		<stop  offset="1.658564e-07" style="stop-color:#FAA12D"/>
		<stop  offset="0.2821" style="stop-color:#FAAF2F"/>
		<stop  offset="0.8098" style="stop-color:#F8D236"/>
		<stop  offset="1" style="stop-color:#F8E138"/>
	</linearGradient>
	<polyline style="fill:url(#SVGID_00000144308382034341837050000007343343023764267964_);" points="15.53,15.82 18.96,13.33 
		14.64,18.09 14.88,16.58 12.9,18.78 24.02,18.61 21.41,20.29 7.56,20.42 15.9,13.9 	"/>
	<path class="st36" d="M29.02,10.95l-4.76,2.32c0.74-0.14,2.33-0.44,2.33-0.44c0.12,0.77,0.14,1.14,0.14,1.51
		c0,6.32-5.12,11.43-11.44,11.43c-2.82,0-5.41-1.02-7.4-2.72l1.46-1.98l-5.17,2.64c3.25,2.99,6.97,4.76,11.1,4.76
		c7.81,0,14.14-6.33,14.14-14.14C29.42,13.44,29.34,12.56,29.02,10.95z"/>
	<path class="st36" d="M3.85,14.34c0-6.32,5.12-11.43,11.43-11.43c5.11,0,9.44,3.35,10.95,8.18l5.37-2.96L28.37,9
		c-2.12-5.44-7.09-8.79-13.08-8.79c-7.8,0-14.13,6.33-14.13,14.14c0,2.67,0.74,5.16,2.02,7.29l-1.92,2.54l5.01-3.02
		C4.63,19.09,3.85,16.81,3.85,14.34z"/>
	<path class="st23" d="M30.84,8.49"/>
	<path class="st23" d="M30.84,10.87"/>
	<path class="st36" d="M7.07,27.6l0.15-0.33c0.04-0.09,0.11-0.15,0.21-0.18c0.1-0.03,0.2-0.03,0.3,0.02l1.62,0.72
		c0.1,0.04,0.17,0.12,0.21,0.21c0.04,0.1,0.04,0.19,0,0.28l-0.15,0.33L7.07,27.6z M8.16,30.49l-1.62-0.72
		c-0.1-0.04-0.17-0.12-0.22-0.22c-0.04-0.1-0.05-0.19,0-0.28l0.68-1.53l0.74,0.33l-0.54,1.2l0.88,0.39l0.54-1.2l0.73,0.33
		l-0.68,1.53c-0.04,0.09-0.11,0.15-0.21,0.19C8.37,30.54,8.27,30.53,8.16,30.49z"/>
	
		<linearGradient id="SVGID_00000096760363064406892660000004914931815287658653_" gradientUnits="userSpaceOnUse" x1="19.6568" y1="29.0732" x2="22.9313" y2="29.0732">
		<stop  offset="1.658564e-07" style="stop-color:#FAA12D"/>
		<stop  offset="0.2821" style="stop-color:#FAAF2F"/>
		<stop  offset="0.8098" style="stop-color:#F8D236"/>
		<stop  offset="1" style="stop-color:#F8E138"/>
	</linearGradient>
	<path style="fill:url(#SVGID_00000096760363064406892660000004914931815287658653_);" d="M19.82,28.9l-0.14-0.34
		c-0.04-0.09-0.03-0.18,0.01-0.28c0.05-0.1,0.12-0.17,0.22-0.21l1.64-0.68c0.1-0.04,0.2-0.05,0.3-0.01c0.1,0.04,0.17,0.1,0.21,0.19
		l0.14,0.34L19.82,28.9z M22.68,30.07l-1.64,0.68c-0.1,0.04-0.2,0.05-0.3,0.01c-0.1-0.04-0.17-0.1-0.21-0.19l-0.65-1.55l0.75-0.31
		l0.51,1.21l0.89-0.37l-0.51-1.21l0.74-0.31l0.65,1.55c0.04,0.09,0.04,0.19-0.01,0.28C22.85,29.96,22.78,30.03,22.68,30.07z"/>
	<path class="st36" d="M9.94,31.05c-0.1-0.02-0.18-0.08-0.23-0.16c-0.06-0.09-0.07-0.18-0.05-0.28l0.54-2.53l0.73,0.16l-0.47,2.17
		l0.86,0.19l0.47-2.17l0.72,0.16l-0.62,2.89L9.94,31.05z"/>
	<path class="st36" d="M13.91,31.76l0.11-2.22l-0.74-0.04l0.04-0.74l1.47,0.07l-0.14,2.95L13.91,31.76z M15.45,29.61l-0.54-0.03
		l0.04-0.74l1.03,0.05L15.45,29.61z"/>
	
		<linearGradient id="SVGID_00000086659376822104359960000013434683224036782491_" gradientUnits="userSpaceOnUse" x1="16.8376" y1="30.0393" x2="19.6372" y2="30.0393">
		<stop  offset="1.658564e-07" style="stop-color:#FAA12D"/>
		<stop  offset="0.2821" style="stop-color:#FAAF2F"/>
		<stop  offset="0.8098" style="stop-color:#F8D236"/>
		<stop  offset="1" style="stop-color:#F8E138"/>
	</linearGradient>
	<path style="fill:url(#SVGID_00000086659376822104359960000013434683224036782491_);" d="M19.29,31.34l-1.64,0.33
		c-0.1,0.02-0.19,0-0.28-0.06c-0.09-0.06-0.14-0.14-0.16-0.24l-0.07-0.36l1.05-1.75l-1.35,0.28l0.34-0.83l1.49-0.3
		c0.1-0.02,0.19,0,0.28,0.05c0.09,0.06,0.14,0.14,0.16,0.24l0.08,0.37l-1.05,1.75l1.5-0.31L19.29,31.34z"/>
	
		<linearGradient id="SVGID_00000118379270417061711320000016183709855366851251_" gradientUnits="userSpaceOnUse" x1="22.5005" y1="27.5228" x2="26.0315" y2="27.5228">
		<stop  offset="1.658564e-07" style="stop-color:#FAA12D"/>
		<stop  offset="0.2821" style="stop-color:#FAAF2F"/>
		<stop  offset="0.8098" style="stop-color:#F8D236"/>
		<stop  offset="1" style="stop-color:#F8E138"/>
	</linearGradient>
	<path style="fill:url(#SVGID_00000118379270417061711320000016183709855366851251_);" d="M25.77,28.3
		c-0.17,0.12-0.36,0.13-0.56,0.04l-1.69-0.73l1.01,1.52l-0.61,0.41l-1.32-1.98c-0.09-0.13-0.12-0.28-0.08-0.43
		c0.03-0.16,0.11-0.28,0.25-0.37c0.17-0.11,0.36-0.13,0.56-0.04l1.69,0.73L24,25.93l0.62-0.41l1.32,1.98
		c0.09,0.13,0.12,0.28,0.08,0.43C25.99,28.09,25.91,28.21,25.77,28.3z"/>
	
		<linearGradient id="SVGID_00000165205027262116912990000001554951120124662945_" gradientUnits="userSpaceOnUse" x1="24.9912" y1="25.5846" x2="28.397" y2="25.5846">
		<stop  offset="1.658564e-07" style="stop-color:#FAA12D"/>
		<stop  offset="0.2821" style="stop-color:#FAAF2F"/>
		<stop  offset="0.8098" style="stop-color:#F8D236"/>
		<stop  offset="1" style="stop-color:#F8E138"/>
	</linearGradient>
	<path style="fill:url(#SVGID_00000165205027262116912990000001554951120124662945_);" d="M28.4,25.98l-1.33,1.31l-2.07-2.11
		l1.33-1.31l0.87,0.18l-1.16,1.14l1.04,1.06l1.16-1.14L28.4,25.98z M27.31,25.5l-0.39,0.38l-0.52-0.53l0.74-0.73L27.31,25.5z"/>
</g>
</svg>
